<svg xmlns="http://www.w3.org/2000/svg" width="220" height="56" viewBox="0 0 220 56" fill="none">
  <defs>
    <linearGradient id="bvGrad" x1="4" y1="4" x2="52" y2="52" gradientUnits="userSpaceOnUse">
      <stop stop-color="#4F46E5"/>
      <stop offset="1" stop-color="#06B6D4"/>
    </linearGradient>
  </defs>
  <rect x="2" y="4" width="52" height="48" rx="12" fill="url(#bvGrad)"/>
  <path d="M14 18C14 15.7909 15.7909 14 18 14H28V42H18C15.7909 42 14 43.7909 14 46V18Z" fill="white" fill-opacity="0.95"/>
  <path d="M42 18C42 15.7909 40.2091 14 38 14H28V42H38C40.2091 42 42 43.7909 42 46V18Z" fill="white" fill-opacity="0.85"/>
  <path d="M63 36.5V19.5H71.6C73.3667 19.5 74.8 19.95 75.9 20.85C77.0167 21.75 77.575 22.9833 77.575 24.55C77.575 25.4667 77.3417 26.2917 76.875 27.025C76.425 27.7583 75.7833 28.3083 74.95 28.675C75.95 28.9917 76.725 29.525 77.275 30.275C77.8417 31.025 78.125 31.9417 78.125 33.025C78.125 34.7083 77.525 36.025 76.325 36.975C75.1417 37.925 73.6 38.4 71.7 38.4H63ZM67.2 27.45H71C71.6667 27.45 72.1833 27.2917 72.55 26.975C72.9333 26.6583 73.125 26.2167 73.125 25.65C73.125 25.0833 72.9333 24.65 72.55 24.35C72.1833 24.05 71.6667 23.9 71 23.9H67.2V27.45ZM67.2 34H71.25C71.9667 34 72.5333 33.8333 72.95 33.5C73.3833 33.1667 73.6 32.6917 73.6 32.075C73.6 31.4583 73.3833 30.9917 72.95 30.675C72.5333 30.3417 71.9667 30.175 71.25 30.175H67.2V34Z" fill="#0F172A"/>
  <path d="M80.7 36.5V19.5H85.175V36.5H80.7Z" fill="#0F172A"/>
  <path d="M88.4 36.5V19.5H93.075L100.775 30.025V19.5H105.225V36.5H100.725L92.875 25.75V36.5H88.4Z" fill="#0F172A"/>
  <path d="M108.467 36.5V19.5H121.167V23.55H112.942V26.15H120.367V29.95H112.942V32.45H121.267V36.5H108.467Z" fill="#0F172A"/>
  <path d="M129.8 36.9C128.467 36.9 127.242 36.7167 126.125 36.35C125.025 35.9667 124.133 35.4333 123.45 34.75L125.75 31.625C126.433 32.1917 127.167 32.6333 127.95 32.95C128.75 33.2667 129.625 33.425 130.575 33.425C131.208 33.425 131.675 33.3333 131.975 33.15C132.292 32.95 132.45 32.675 132.45 32.325C132.45 32.025 132.325 31.775 132.075 31.575C131.825 31.375 131.4 31.2 130.8 31.05L128.175 30.4C126.492 30 125.242 29.3833 124.425 28.55C123.625 27.7 123.225 26.625 123.225 25.325C123.225 24.1917 123.533 23.1833 124.15 22.3C124.767 21.4 125.642 20.7 126.775 20.2C127.925 19.6833 129.258 19.425 130.775 19.425C132.008 19.425 133.142 19.5917 134.175 19.925C135.225 20.2417 136.1 20.7 136.8 21.3L134.7 24.55C134.067 24.1 133.408 23.7583 132.725 23.525C132.058 23.2917 131.333 23.175 130.55 23.175C129.95 23.175 129.492 23.2583 129.175 23.425C128.875 23.5917 128.725 23.8417 128.725 24.175C128.725 24.4583 128.833 24.7 129.05 24.9C129.283 25.0833 129.692 25.2417 130.275 25.375L132.875 26C134.592 26.4 135.867 27.0333 136.7 27.9C137.533 28.75 137.95 29.8417 137.95 31.175C137.95 32.325 137.633 33.35 137 34.25C136.367 35.15 135.467 35.8583 134.3 36.375C133.15 36.875 131.65 37.05 129.8 36.9Z" fill="#0F172A"/>
  <path d="M145.25 36.5L138.8 19.5H143.575L147.9 31.825L152.225 19.5H156.95L150.5 36.5H145.25Z" fill="#0F172A"/>
  <path d="M158.042 36.5V19.5H162.517V36.5H158.042Z" fill="#0F172A"/>
  <path d="M165.742 36.5V19.5H173.617C175.6 19.5 177.158 19.975 178.292 20.925C179.425 21.8583 179.992 23.1583 179.992 24.825C179.992 25.975 179.708 26.9833 179.142 27.85C178.592 28.7 177.8 29.3417 176.767 29.775L180.542 36.5H175.592L172.367 30.55H170.217V36.5H165.742ZM170.217 26.925H172.942C173.708 26.925 174.308 26.7417 174.742 26.375C175.192 25.9917 175.417 25.4667 175.417 24.8C175.417 24.1333 175.192 23.6167 174.742 23.25C174.308 22.8667 173.708 22.675 172.942 22.675H170.217V26.925Z" fill="#0F172A"/>
  <path d="M182.333 36.5V19.5H195.033V23.55H186.808V26.15H194.233V29.95H186.808V32.45H195.133V36.5H182.333Z" fill="#0F172A"/>
  <path d="M203.667 36.9C202.333 36.9 201.108 36.7167 199.992 36.35C198.892 35.9667 198 35.4333 197.317 34.75L199.617 31.625C200.3 32.1917 201.033 32.6333 201.817 32.95C202.617 33.2667 203.492 33.425 204.442 33.425C205.075 33.425 205.542 33.3333 205.842 33.15C206.158 32.95 206.317 32.675 206.317 32.325C206.317 32.025 206.192 31.775 205.942 31.575C205.692 31.375 205.267 31.2 204.667 31.05L202.042 30.4C200.358 30 199.108 29.3833 198.292 28.55C197.492 27.7 197.092 26.625 197.092 25.325C197.092 24.1917 197.4 23.1833 198.017 22.3C198.633 21.4 199.508 20.7 200.642 20.2C201.792 19.6833 203.125 19.425 204.642 19.425C205.875 19.425 207.008 19.5917 208.042 19.925C209.092 20.2417 209.967 20.7 210.667 21.3L208.567 24.55C207.933 24.1 207.275 23.7583 206.592 23.525C205.925 23.2917 205.2 23.175 204.417 23.175C203.817 23.175 203.358 23.2583 203.042 23.425C202.742 23.5917 202.592 23.8417 202.592 24.175C202.592 24.4583 202.7 24.7 202.917 24.9C203.15 25.0833 203.558 25.2417 204.142 25.375L206.742 26C208.458 26.4 209.733 27.0333 210.567 27.9C211.4 28.75 211.817 29.8417 211.817 31.175C211.817 32.325 211.5 33.35 210.867 34.25C210.233 35.15 209.333 35.8583 208.167 36.375C207.017 36.875 205.517 37.05 203.667 36.9Z" fill="#0F172A"/>
</svg>
