<svg xmlns="http://www.w3.org/2000/svg" width="1200" height="420" viewBox="0 0 1200 420" fill="none">
  <defs>
    <linearGradient id="bg" x1="0" y1="0" x2="1200" y2="420" gradientUnits="userSpaceOnUse">
      <stop stop-color="#EEF2FF"/>
      <stop offset="1" stop-color="#E0F2FE"/>
    </linearGradient>
    <linearGradient id="accent" x1="780" y1="30" x2="1130" y2="370" gradientUnits="userSpaceOnUse">
      <stop stop-color="#4F46E5"/>
      <stop offset="1" stop-color="#06B6D4"/>
    </linearGradient>
  </defs>
  <rect width="1200" height="420" rx="28" fill="url(#bg)"/>
  <circle cx="1040" cy="110" r="180" fill="#C7D2FE" fill-opacity="0.38"/>
  <circle cx="1080" cy="300" r="150" fill="#A5F3FC" fill-opacity="0.35"/>
  <rect x="820" y="56" width="260" height="320" rx="18" fill="url(#accent)"/>
  <rect x="860" y="86" width="260" height="320" rx="18" fill="#312E81"/>
  <rect x="900" y="116" width="260" height="320" rx="18" fill="#1E293B"/>
  <rect x="934" y="148" width="240" height="24" rx="8" fill="#BFDBFE"/>
  <rect x="934" y="184" width="170" height="16" rx="8" fill="#E2E8F0"/>
  <rect x="934" y="210" width="200" height="16" rx="8" fill="#E2E8F0"/>
  <rect x="934" y="236" width="160" height="16" rx="8" fill="#E2E8F0"/>
  <rect x="100" y="96" width="420" height="52" rx="14" fill="#4F46E5" fill-opacity="0.1"/>
  <text x="122" y="130" fill="#3730A3" font-family="Arial, sans-serif" font-size="30" font-weight="700">BookVerse Banner</text>
  <text x="102" y="188" fill="#0F172A" font-family="Arial, sans-serif" font-size="52" font-weight="700">Khong gian sach hien dai</text>
  <text x="102" y="232" fill="#334155" font-family="Arial, sans-serif" font-size="26">Hinh banner local de import Figma on dinh</text>
  <text x="102" y="270" fill="#334155" font-family="Arial, sans-serif" font-size="26">Khong phu thuoc lien ket ngoai</text>
</svg>
